
<svg xmlns="http://www.w3.org/2000/svg" version="1.1" xmlns:xlink="http://www.w3.org/1999/xlink" preserveAspectRatio="none" x="0px" y="0px" width="500px" height="500px" viewBox="0 0 500 500">
<defs>
<g id="Layer1_0_FILL">
<path fill="#D6581D" stroke="none" d="
M 500 42.2
Q 500 24.75 489.15 12.35 478.25 0 462.9 0
L 37.1 0
Q 21.75 0 10.85 12.35 0 24.75 0 42.2
L 0 457.75
Q 0 475.25 10.85 487.6 21.75 500 37.1 500
L 462.9 500
Q 478.25 500 489.15 487.6 500 475.25 500 457.75
L 500 42.2
M 363.2 64.3
Q 363.8 64.6 364.4 64.9 364.55 65 364.55 65.35 375.65 71.25 380.9 82.8 381.65 84.45 382.15 85.9 386.3 98 383.4 111.35 380.95 116.4 377.85 121 373.25 127.9 366.85 133.2 365.35 133.55 363.95 134.25 363.8 134.3 363.65 134.4 363.05 134.7 362.3 134.7 358.8 137.2 353.95 138.15 338.9 140.95 329.15 135.45 328.4 135.05 327.6 134.9 326.9 134.7 326.3 134.4 326.15 134.3 326.15 133.95 315.45 128.45 309.8 117.95 305.8 110.55 305.5 100.05 305.2 88.9 309.1 81.7 314.6 71.55 323.85 65.35 325.4 65 326.75 64.3 326.9 64.2 327.05 64.15 327.65 63.85 328.4 63.85 328.4 63.45 328.55 63.4 335.05 60.35 343.45 59.35 353.85 59.85 361.55 63.1 362.3 63.85 363.2 64.3
M 383.55 145.7
Q 384.15 146 384.9 146 399.9 153.3 404.8 170.8 404.9 171.25 404.95 171.65 406.25 192.9 409.55 212.25 412.7 230.9 415.6 250.05 417.1 260.05 417.95 270.35 418.9 282.45 416.65 291.5 416.6 291.85 416.6 292.2 416.6 292.6 416.6 292.95 411.25 303.85 401.3 309.95 400.75 310.3 400.15 310.6 400 310.7 400 311.05 396.95 311.8 394.55 313 393.2 313.7 391.7 313.7 366 314 349.35 322.8 348.75 323.1 348.15 323.4 348 323.5 348 323.9 347.25 324.25 346.45 324.45 345.75 324.65 345.15 324.95 345 325 345 325.4 337.8 328.75 331.65 333.2 331.05 333.7 330.45 334.15 320.05 341.5 312.15 351.25 302.15 363.65 295.9 379.6 289.65 395.55 287 415.1 286.95 415.45 286.95 415.85 286.95 416.2 286.95 416.6 282.7 425.9 274.65 431.3 274.15 431.65 273.5 431.95 273.35 432.05 273.35 432.4 271.85 432.8 270.45 433.4 269.25 433.9 268 434.3 257.25 437.35 249.15 434.2 248.5 433.9 247.9 433.6 247.75 433.55 247.75 433.15 244.55 431.85 241.9 429.9 241.7 429.75 241.55 429.6 241.35 429.4 240.95 429.4 239.6 426.6 238.1 424 237.95 423.75 237.75 423.55 237.55 423.35 237.2 423.35 237.2 428.25 237.2 433.15 237.2 433.55 237 433.75 236.8 433.9 236.45 433.9 157.3 434.3 78.15 434.3
L 78.15 433.9
Q 78.15 433.55 78.15 433.15 78.15 417.35 78.15 401.5 78.15 379.25 78.15 357.05 78.15 334.8 78.15 312.55 78.15 290.35 78.15 268.1 78.15 267.75 78.15 267.35 78.15 266.95 78.15 266.6 67.6 266.2 57.05 266.2
L 57.05 229.65
Q 95.5 230.05 133.95 230.05
L 133.95 229.65
Q 133.95 229.3 133.95 228.9 133.9 225.1 136 223.4 136.2 223.25 136.4 223.05 136.55 222.9 136.95 222.9 138.5 222.15 140.05 221.6 140.7 221.35 141.3 221.05 141.45 221 141.45 220.6 141.45 220.25 141.45 219.85 141.45 219.1 141.5 219.1 162.6 218.35 183.7 218.75
L 183.7 219.1
Q 183.7 221 183.7 222.9 183.7 223.25 183.7 223.65 183.7 224 183.7 224.4 185.3 223 185.85 220.6 185.95 220.25 185.95 219.85 185.95 219.5 185.95 219.1 187.75 218.6 189.1 217.9 189.7 217.6 190.3 217.3 190.45 217.25 190.45 216.85 193.5 216.85 196.5 216.85 197.25 215.7 198.6 215.05 198.75 214.95 198.75 214.6 198.75 214.2 198.75 213.85 196.85 215.35 193.5 214.95
L 193.65 214.8
Q 193.85 214.6 194.25 214.6 195.65 213.75 196.85 212.7 197.25 212.35 197.85 212.05 198 211.95 198 211.55 208.25 207.3 220.5 211.15 220.6 211.2 220.75 211.25 221.35 211.55 222.1 211.55 222.85 212.35 223.8 212.8 224.4 213.1 225 213.4 225.15 213.45 225.15 213.85 226.55 213.1 225.3 211.4 225.15 211.2 224.95 211 224.75 210.8 224.4 210.8 222.8 203.5 224.3 196.5 224.4 196.1 224.4 195.75 224.4 195.35 224.4 195 227.3 190 231.35 186.15 231.55 185.95 231.75 185.75 231.9 185.55 231.9 185.2 234.7 184.2 237.95 184.2 287.15 183.9 329.05 176.55 329.15 176.55 329.15 176.15 329.15 175.75 329.15 175.4 329.15 174.25 329.3 173.15 332.4 152.3 349.6 145.5 350.25 145.25 350.85 144.95 351 144.85 351 144.5 367.9 139.9 383.3 145.6 383.4 145.6 383.55 145.7
M 436 159
Q 436.15 159.2 436.35 159.4 436.55 159.55 436.95 159.55 437.3 161.1 437.35 162.6 437.55 168.5 437.4 173.9 436.9 196.1 436.4 217.6 435.9 240.1 438.15 260.55 440.35 280.1 442.15 300.5 442.2 300.9 442.4 301.1 442.6 301.25 442.95 301.25
L 442.95 318.6
Q 441.8 320.45 441.5 323.1 441.45 323.5 441.45 323.9 441.45 324.25 441.45 324.65 438.95 330.05 434.15 333.25 433.55 333.7 432.95 334 427 337.05 420.4 335.8 410 333.85 399.25 332.55
L 399.25 332.9
Q 399.25 333.3 399.25 333.7 399.25 349.15 399.25 364.6 399.25 386.8 399.25 409.05 399.25 409.4 399.25 409.8 399.25 410.2 399.25 410.55 409.4 410.95 419.45 412.4 420.95 412.6 423.3 413.15 423.35 413.2 423.55 413.4 423.75 413.55 424.1 413.55 425.15 415.95 426.2 418.15 426.4 418.45 426.4 418.85 426.4 419.2 426.4 419.6 425.5 422.9 423.65 425.25 423.35 425.65 422.75 425.95 422.6 426 422.6 426.4 421.4 427.45 418.85 427.45 388.3 427.5 357.8 427.5 356.3 427.5 354.9 426.85 354.75 426.75 354.6 426.7 354 426.4 353.25 426.4 351.95 424.7 351.1 422.55 351 422.25 350.8 422.05 350.65 421.85 350.25 421.85 350.25 419.95 350.25 418.1 350.25 417.7 350.25 417.35 350.25 416.95 350.25 416.6 351.55 415.25 352.75 413.75 352.9 413.55 353.1 413.4 353.25 413.2 353.25 412.8 354.25 411.95 356.3 411.9 367.6 411.7 378.85 410.95 378.9 410.95 378.9 410.55 378.9 410.2 378.9 409.8 378.9 394.75 378.9 379.65 378.9 357.4 378.9 335.2 378.9 334.8 378.9 334.45 378.9 334.05 378.9 333.7 378.15 333.3 377.45 333.4 355.9 337.45 338.1 345.45 337.45 345.75 336.85 346.05 336.7 346.1 336.7 346.5 333.4 348 332.05 347.6 330.65 347.25 329.2 346.9 329.15 346.85 329.15 346.5 327.4 345.6 326.95 343.45 326.9 343.1 326.9 342.7 326.9 342.35 326.9 341.95 327.3 339.75 328.6 338.4 328.75 338.2 328.95 338 329.15 337.8 329.15 337.45 332.45 336.2 335.8 334.85 335.95 334.8 336.1 334.75 336.7 334.45 337.45 334.45 342.05 331.9 347.3 330.15 348 329.9 348.6 329.6 348.75 329.55 348.75 329.15 357.95 326.65 367.45 324.05 385.2 319.15 405.25 322.65 415.6 324.5 427.15 325
L 427.3 324.8
Q 427.5 324.65 427.9 324.65 431.25 321.25 431.9 315.55 432.7 308.1 431.9 302 429.4 282.05 427.15 262.05 426 251.9 425.9 240.95 425.6 218.75 426.15 196.5 426.4 186 425.9 174.7 425.45 165.4 427.75 159.55 427.9 159.2 427.9 158.8 427.9 158.45 427.9 158.05 429.6 157.5 431.55 156.95 431.65 156.95 431.85 156.75 432.05 156.55 432.4 156.55 434.55 157.4 436 159
M 97.75 117.3
Q 102.65 116.6 107.55 115.85 111.35 115.85 115.05 116.25 115.1 116.25 115.1 116.6 115.1 117 115.1 117.35 115.2 125.15 115.75 132.45 117.45 153.1 118.85 173.9 120 190.45 121.1 207.05 113.15 208.5 103.85 207.8 103.8 207.8 103.8 207.05 102.65 203.3 103.25 198.05 103.55 195.6 102.3 195 102.3 199.9 102.1 204.8 101.7 214.8 103.05 222.9 103.8 222.9 104.55 222.9 111.7 223.25 118.35 225.35 118.85 225.5 118.85 227.4 118.85 228.15 118.65 228.25 108.55 231.1 100.75 228.15 100 227.8 99.45 227.2 99.25 227.05 99.1 226.85 98.9 226.65 98.5 226.65 97.15 225 96.65 222.2 96.65 222.15 96.45 221.95 96.25 221.75 96.25 221.35 97.55 217.8 97.4 212.35 97 201.4 97 190.45 99.65 190.1 102.15 189.4 102.3 189.35 102.3 188.95 102.3 188.6 102.3 188.2 101.05 169.1 99.85 150.5 98.75 133.35 97 117.35 97.4 117.35 97.75 117.3
M 334.35 220.6
Q 334.1 216.6 332.15 218.35 305.05 222.5 274.9 223.5 258.7 224 242.5 223.35 237.3 223.15 232.65 221.35 232.3 221 232.05 220.55 231.3 219 229.65 218.35 229.65 219.1 230 219.7 230.95 221.2 231.15 223.65 209.7 224 188.25 223.25 188.2 223.25 188.2 222.15
L 188.2 221.35
Q 187.25 222.3 186.7 224.4 185.4 226.45 182.15 226.4 161.8 226.25 141.45 225.9 141.75 221.75 138.45 224.4 137.7 224.4 137.4 224.75 136.2 226.25 136.2 228.9
L 136.2 229.3
Q 205.9 230.05 275.65 231.15
L 275.65 231.9
Q 275.65 232.7 275.65 233.45 275.65 249.25 275.65 265.1 256.4 265.45 237.25 266.6 237.2 266.6 237.2 267.35 237.2 273.75 237.2 280.15 237.2 299 237.2 317.85 237.2 332.9 237.2 348 237.2 370.25 236.75 392.45 236.65 398.7 237.95 403 238.5 395.65 240.3 389.45 242 383.3 243.9 376.8 248.75 360.3 255.75 345.6 256.05 345 256.4 344.4 262.85 332.95 270.55 322.5 277.25 313.45 285.1 305.4 286.95 303.55 288.85 301.7 302.3 288.7 320.1 280.15 320.95 278.75 323.1 278.65 326.4 276.65 329.9 274.9 331.6 274.3 333.5 273.7 334.4 273.4 335.3 273.25 339.55 272.45 341.2 269.6 340.25 266.05 339.75 261.4 337.65 241.9 334.6 222.85 334.4 221.4 334.35 220.6 Z"/>
</g>
</defs>

<g transform="matrix( 1, 0, 0, 1, 0,0) ">
<use xlink:href="#Layer1_0_FILL"/>
</g>
</svg>
